<?xml version="1.0" standalone="no"?>
<!DOCTYPE svg PUBLIC "-//W3C//DTD SVG 20010904//EN"
 "http://www.w3.org/TR/2001/REC-SVG-20010904/DTD/svg10.dtd">
<svg version="1.0" xmlns="http://www.w3.org/2000/svg"
 width="200.000000pt" height="200.000000pt" viewBox="0 0 200.000000 200.000000"
 preserveAspectRatio="xMidYMid meet">
<metadata>
Created by potrace 1.11, written by Peter Selinger 2001-2013
</metadata>
<g transform="translate(0.000000,200.000000) scale(0.100000,-0.100000)"
fill="#000000" stroke="none">
<path d="M0 1000 l0 -1000 1000 0 1000 0 0 1000 0 1000 -1000 0 -1000 0 0
-1000z m721 670 c61 -23 122 -63 142 -94 14 -20 12 -25 -13 -56 l-27 -34 -37
36 c-60 59 -99 73 -196 73 -94 0 -124 -11 -190 -71 -80 -72 -120 -178 -121
-315 0 -101 11 -152 54 -232 38 -72 103 -131 169 -153 73 -24 172 -15 232 20
l46 27 0 169 0 170 45 0 45 0 0 -189 0 -189 -32 -28 c-18 -15 -58 -39 -88 -53
-48 -23 -68 -26 -160 -26 -128 0 -175 19 -261 105 -97 96 -142 216 -142 375 1
229 115 417 286 471 65 20 188 17 248 -6z m459 -200 l0 -210 230 0 230 0 0
210 0 210 45 0 45 0 0 -475 0 -475 -45 0 -45 0 0 220 0 220 -230 0 -230 0 0
-220 0 -220 -45 0 -45 0 0 475 0 475 45 0 45 0 0 -210z m670 -875 l0 -65 -860
0 -860 0 0 65 0 65 860 0 860 0 0 -65z"/>
</g>
</svg>
